# xmcd
#
# Track frame offsets:
#	150
#	14800
#	30168
#	41618
#	55750
#	61252
#	75116
#	89629
#	99345
#	113325
#	124244
#	139844
#	149984
#	164682
#	178966
#	188624
#	202265
#	211690
#
# Disc length: 2998 seconds
#
# Revision: 1
# Processed by: cddbd v1.5.2PL0 Copyright (c) Steve Scherf et al.
# Submitted via: audiograbber 1.83.01
#
DISCID=fe0bb412
DTITLE=Lead Belly - All-Time Greatest Performances
DYEAR=2010
DGENRE=Blues
TTITLE0=New Orleans (House Of The Rising Sun)
TTITLE1=The Bourgeois Blues
TTITLE2=Goodnight Irene
TTITLE3=Looky Looky Yonder - Black Betty
TTITLE4=Bottle Up And Go
TTITLE5=De Kalb Blues
TTITLE6=John Hardy
TTITLE7=How Long
TTITLE8=Roberta
TTITLE9=Pretty Flower In Your Backyard
TTITLE10=Skip To My Lou
TTITLE11=I Will Be Glad When I Get Home
TTITLE12=Rock Island Line
TTITLE13=The Gallis Pole
TTITLE14=Go Down Old Hannah
TTITLE15=Where Did You Sleep Last Night?
TTITLE16=Midnight Special
TTITLE17=When I Was A Cowboy
EXTD=
EXTT0=
EXTT1=
EXTT2=
EXTT3=
EXTT4=
EXTT5=
EXTT6=
EXTT7=
EXTT8=
EXTT9=
EXTT10=
EXTT11=
EXTT12=
EXTT13=
EXTT14=
EXTT15=
EXTT16=
EXTT17=
PLAYORDER=
